<svg width="36" height="35" viewBox="0 0 36 35" fill="none" xmlns="http://www.w3.org/2000/svg">
<path d="M8.50293 25.0061H26.5029M25.0031 31.0061C25.4009 31.0061 25.7825 30.848 26.0638 30.5667C26.3451 30.2854 26.5031 29.9039 26.5031 29.5061V21.4811C26.5031 20.7956 26.9771 20.2151 27.5936 19.9196C28.8701 19.3107 29.8904 18.2704 30.4746 16.9824C31.0587 15.6944 31.1691 14.2415 30.7862 12.88C30.4034 11.5186 29.552 10.3361 28.3821 9.5413C27.2123 8.74651 25.7994 8.3905 24.3926 8.53608C23.8133 7.18939 22.8519 6.04203 21.6275 5.23584C20.403 4.42965 18.9691 4 17.5031 4C16.0371 4 14.6032 4.42965 13.3788 5.23584C12.1543 6.04203 11.193 7.18939 10.6136 8.53608C9.20752 8.39151 7.7955 8.74804 6.62655 9.5428C5.45759 10.3375 4.60676 11.5195 4.22407 12.8802C3.84139 14.241 3.95141 15.6932 4.53475 16.9807C5.11809 18.2683 6.13729 19.3085 7.41264 19.9181C8.02914 20.2151 8.50314 20.7956 8.50314 21.4796V29.5061C8.50314 29.9039 8.66118 30.2854 8.94248 30.5667C9.22379 30.848 9.60533 31.0061 10.0031 31.0061H25.0031Z" stroke="url(#paint0_linear_151_66)" stroke-width="1.66667" stroke-linecap="round" stroke-linejoin="round"/>
<defs>
<linearGradient id="paint0_linear_151_66" x1="-0.497071" y1="-0.4939" x2="35.5029" y2="35.5061" gradientUnits="userSpaceOnUse">
<stop stop-color="#FF3C38"/>
<stop offset="0.4" stop-color="#FF8C42"/>
<stop offset="1" stop-color="#FFD166"/>
</linearGradient>
</defs>
</svg>
